<svg xmlns="http://www.w3.org/2000/svg" version="1.1" xmlns:xlink="http://www.w3.org/1999/xlink" xmlns:svgjs="http://svgjs.dev/svgjs" width="2000" height="686" viewBox="0 0 2000 686"><g transform="matrix(1,0,0,1,-1.2121212121213603,0.4214516713804528)"><svg viewBox="0 0 396 136" data-background-color="#ffffff" preserveAspectRatio="xMidYMid meet" height="686" width="2000" xmlns="http://www.w3.org/2000/svg" xmlns:xlink="http://www.w3.org/1999/xlink"><g id="tight-bounds" transform="matrix(1,0,0,1,0.24000000000003752,-0.083553101031697)"><svg viewBox="0 0 395.5199999999999 136.1670670145089" height="136.1670670145089" width="395.5199999999999"><g><svg viewBox="0 0 654.9586731149063 225.4849351076337" height="136.1670670145089" width="395.5199999999999"><g transform="matrix(1,0,0,1,259.4386731149064,50.155783033465966)"><svg viewBox="0 0 395.52 125.17336904070177" height="125.17336904070177" width="395.52"><g id="textblocktransform"><svg viewBox="0 0 395.52 125.17336904070177" height="125.17336904070177" width="395.52" id="textblock"><g><svg viewBox="0 0 395.52 71.91272727272727" height="71.91272727272727" width="395.52"><g transform="matrix(1,0,0,1,0,0)"><svg width="395.52" viewBox="1.34 -39.11 217.78 39.6" height="71.91272727272727" data-palette-color="#1c4b82"><path d="M19.02-31.47L19.02 0 12.94 0 12.94-31.47 1.34-31.47 2.15-35.77 30.98-35.77 30.18-31.47 19.02-31.47ZM53.07-5.32L53.07-2.37Q52-1.61 50.75-1.07 49.51-0.54 48.19-0.18 46.87 0.17 45.57 0.33 44.26 0.49 43.09 0.49L43.09 0.49Q40.38 0.49 38.05-0.34 35.72-1.17 33.99-2.78 32.27-4.39 31.3-6.75 30.32-9.11 30.32-12.16L30.32-12.16Q30.32-15.41 31.42-18.04 32.52-20.68 34.36-22.52 36.2-24.37 38.63-25.37 41.06-26.37 43.7-26.37L43.7-26.37Q45.9-26.37 47.79-25.65 49.68-24.93 51.06-23.51 52.44-22.09 53.22-19.97 54-17.85 54-15.04L54-15.04Q54-14.36 53.94-13.59 53.88-12.82 53.73-12.08L53.73-12.08 36.45-12.08Q36.45-10.11 37.14-8.59 37.84-7.08 39.11-6.07 40.38-5.05 42.16-4.53 43.94-4 46.09-4L46.09-4Q46.7-4 47.52-4.05 48.34-4.1 49.27-4.25 50.19-4.39 51.17-4.65 52.15-4.91 53.07-5.32L53.07-5.32ZM36.45-14.97L48.51-14.97Q48.51-16.75 48.06-18.09 47.6-19.43 46.82-20.34 46.04-21.24 45-21.69 43.97-22.14 42.77-22.14L42.77-22.14Q41.43-22.14 40.28-21.61 39.13-21.07 38.28-20.1 37.42-19.14 36.94-17.82 36.45-16.5 36.45-14.97L36.45-14.97ZM63.08 0L57.42 0 67.06-13.26 58.12-25.88 65.01-25.88 68.55-20.24 70.45-16.46 70.92-16.46 72.92-20.24 76.68-25.88 82.34-25.88 73.21-13.7 83.08 0 76.22 0 71.94-6.52 69.92-10.35 69.45-10.35 67.43-6.59 63.08 0ZM90.89-7.15L90.89-21.66 85.69-21.66 86.13-24.44Q88.05-24.93 89.21-25.54 90.37-26.15 91.14-27.04 91.91-27.93 92.49-29.21 93.06-30.49 93.82-32.32L93.82-32.32 96.65-32.32 96.65-25.88 105.95-25.88 104.9-21.66 96.82-21.66 96.82-8.33Q96.82-7.13 97.16-6.31 97.5-5.49 98.14-4.98 98.77-4.47 99.66-4.24 100.55-4 101.68-4L101.68-4Q102.75-4 103.81-4.2 104.88-4.39 105.83-4.76L105.83-4.76 105.83-1.78Q104.17-0.66 102.28-0.09 100.38 0.49 98.45 0.49L98.45 0.49Q94.77 0.49 92.83-1.51 90.89-3.52 90.89-7.15L90.89-7.15ZM130.16 0L124.11 0 124.11-35.77 130.16-35.77 130.16-20.75 147.94-20.75 147.94-35.77 153.99-35.77 153.99 0 147.94 0 147.94-16.46 130.16-16.46 130.16 0ZM163.1-8.62L163.1-25.88 169-25.88 169-9.55Q169-8.3 169.35-7.29 169.69-6.27 170.3-5.54 170.91-4.81 171.76-4.41 172.62-4 173.64-4L173.64-4Q174.52-4 175.36-4.3 176.21-4.59 176.99-5.07 177.77-5.54 178.48-6.16 179.18-6.79 179.82-7.47L179.82-7.47 179.82-25.88 185.73-25.88 185.73 0 180.94 0 180.06-4.37Q179.18-3.56 178.16-2.7 177.13-1.83 175.99-1.12 174.84-0.42 173.56 0.04 172.28 0.49 170.88 0.49L170.88 0.49Q169.3 0.49 167.88-0.15 166.46-0.78 165.4-1.95 164.34-3.13 163.72-4.81 163.1-6.49 163.1-8.62L163.1-8.62ZM193.88-1.12L193.88-39.11 199.79-39.11 199.79-21.88Q200.86-22.83 201.95-23.65 203.03-24.46 204.17-25.06 205.3-25.66 206.53-26.01 207.75-26.37 209.09-26.37L209.09-26.37Q211.43-26.37 213.29-25.33 215.14-24.29 216.45-22.56 217.76-20.83 218.44-18.58 219.12-16.33 219.12-13.89L219.12-13.89Q219.12-10.91 218.07-8.29 217.02-5.66 215.02-3.71 213.02-1.76 210.08-0.63 207.14 0.49 203.38 0.49L203.38 0.49Q201.4 0.49 198.91 0.13 196.42-0.22 193.88-1.12L193.88-1.12ZM199.79-18.7L199.79-4.86Q201.11-4.27 202.4-4 203.69-3.74 204.82-3.74L204.82-3.74Q206.84-3.74 208.37-4.5 209.89-5.27 210.92-6.57 211.95-7.86 212.46-9.53 212.97-11.21 212.97-13.01L212.97-13.01Q212.97-14.72 212.53-16.32 212.09-17.92 211.23-19.14 210.36-20.36 209.1-21.11 207.84-21.85 206.23-21.85L206.23-21.85Q204.89-21.85 203.28-21.18 201.67-20.51 199.79-18.7L199.79-18.7Z" opacity="1" transform="matrix(1,0,0,1,0,0)" fill="#000000" class="wordmark-text-0" data-fill-palette-color="primary" id="text-0"></path></svg></g></svg></g><g transform="matrix(1,0,0,1,0,88.88959627636363)"><svg viewBox="0 0 395.52 36.28377276433814" height="36.28377276433814" width="395.52"><g transform="matrix(1,0,0,1,0,0)"><svg width="395.52" viewBox="2.75 -33.25 367.87 33.75" height="36.28377276433814" data-palette-color="#1c4b82"><path d="M14.05 0.5Q8.35 0.5 5.55-3.5 2.75-7.5 2.75-16.35 2.75-25.2 5.45-29.23 8.15-33.25 14.1-33.25L14.1-33.25Q18-33.25 21.95-32L21.95-32 21.95-25.4 19.2-25.4 19.2-29.85Q17-30.65 14.1-30.65L14.1-30.65Q9.6-30.65 7.65-27.3 5.7-23.95 5.7-16.45 5.7-8.95 7.8-5.55 9.9-2.15 14.1-2.15L14.1-2.15Q17.25-2.15 21.6-3.5L21.6-3.5 22.25-0.9Q18.15 0.5 14.05 0.5L14.05 0.5ZM35.9-2.15L35.9-2.15Q37.75-2.15 39.92-3.33 42.1-4.5 43.1-5.5L43.1-5.5 43.1-11.45Q39.8-11.7 36.8-11.7 33.8-11.7 32.3-10.43 30.8-9.15 30.8-7L30.8-7Q30.8-2.15 35.9-2.15ZM35.85 0.45L35.85 0.45Q32.2 0.45 30.1-1.43 28-3.3 28-6.75 28-10.2 30.3-12.1L30.3-12.1Q32.6-14.05 36.4-14.05 40.2-14.05 43.1-13.75L43.1-13.75Q43.1-18.2 42-19.83 40.9-21.45 37.55-21.45 34.2-21.45 29.65-19.85L29.65-19.85 28.9-22.35Q33.55-24.05 37.3-24.05L37.3-24.05Q42.25-24.05 44-21.85 45.75-19.65 45.75-14.15L45.75-14.15 45.75-3.65 46.15 0.15 43.6 0.4 43.1-2.6Q41.95-1.6 39.85-0.58 37.75 0.45 35.85 0.45ZM53.9-1.15L53.9-1.15 54.55-3.75Q59.5-2.1 62.2-2.1 64.9-2.1 66.37-3.28 67.84-4.45 67.84-6.4 67.84-8.35 66.67-9.28 65.5-10.2 61.8-11.05 58.1-11.9 56.25-13.5L56.25-13.5Q54.4-15 54.4-18 54.4-21 56.67-22.58 58.95-24.15 62.55-24.15 66.15-24.15 70.34-22.55L70.34-22.55 69.65-20.2Q65.4-21.6 62.8-21.6 60.2-21.6 58.7-20.7L58.7-20.7Q57.2-19.7 57.2-18 57.2-16.3 58.52-15.35 59.85-14.4 63.65-13.45 67.45-12.5 69.05-11.03 70.65-9.55 70.65-6.4 70.65-3.25 68.5-1.4L68.5-1.4Q66.4 0.45 62.5 0.45 58.6 0.45 53.9-1.15ZM82.99-9.1L82.99-20.9 78.79-20.9 78.79-23.4 82.99-23.4 82.99-29.15 85.64-29.65 85.64-23.4 95.14-23.4 95.14-20.9 85.64-20.9 85.64-9.2Q85.64-5.3 86.42-3.7 87.19-2.1 89.59-2.1 91.99-2.1 94.89-3.05L94.89-3.05 95.49-0.55Q92.59 0.5 90.09 0.5 87.59 0.5 86.17-0.15 84.74-0.8 84.07-2.23 83.39-3.65 83.19-5.15 82.99-6.65 82.99-9.1L82.99-9.1ZM148.44-32.75L138.79-14.15 138.79 0 136.09 0 136.09-14.15 126.44-32.75 129.74-32.75 137.39-17 137.49-17 145.14-32.75 148.44-32.75ZM152.94-11.8Q152.94-24.05 162.49-24.05 172.04-24.05 172.04-11.8 172.04 0.45 162.49 0.45 152.94 0.45 152.94-11.8ZM162.49-21.45Q155.79-21.45 155.79-11.8 155.79-2.15 162.49-2.15 169.19-2.15 169.19-11.8 169.19-21.45 162.49-21.45ZM196.23 0L193.68 0 193.58-2.05Q188.78 0.45 185.58 0.45 182.38 0.45 180.53-1.75 178.68-3.95 178.68-7.75L178.68-7.75 178.68-23.75 181.33-23.75 181.33-7.75Q181.33-5.3 182.51-3.73 183.68-2.15 186.08-2.15 188.48-2.15 193.58-4.65L193.58-4.65 193.58-23.75 196.23-23.75 196.23 0ZM209.23-21.25L204.53-21.25 204.53-23.75 211.88-23.75 211.98-20.85Q213.58-21.85 216.48-22.85 219.38-23.85 221.58-24.05L221.58-24.05 221.58-21.1Q219.53-20.95 216.51-20.1 213.48-19.25 211.98-18.35L211.98-18.35 211.98-2.5 219.98-2.5 219.98 0 204.53 0 204.53-2.5 209.23-2.5 209.23-21.25ZM269.48 0L255.53 0 255.53-2.5 261.18-2.5 261.18-30.25 255.53-30.25 255.53-32.75 269.48-32.75 269.48-30.25 263.93-30.25 263.93-2.5 269.48-2.5 269.48 0ZM293.72-33.2L296.37-33.2 296.37-4.15 296.87 0.2 294.32 0.5 293.82-2.15Q290.07 0.45 286.92 0.45L286.92 0.45Q282.47 0.45 280-2.85 277.52-6.15 277.52-11.83 277.52-17.5 280.27-20.78 283.02-24.05 287.77-24.05L287.77-24.05Q290.57-24.05 293.72-22.7L293.72-22.7 293.72-33.2ZM280.37-11.9Q280.37-7.5 282.1-4.83 283.82-2.15 287.07-2.15 290.32-2.15 293.72-5L293.72-5 293.72-20Q292.67-20.5 290.85-20.98 289.02-21.45 287.87-21.45L287.87-21.45Q284.32-21.45 282.35-18.88 280.37-16.3 280.37-11.9ZM303.32-11.85Q303.32-17.6 305.7-20.83 308.07-24.05 312.62-24.05 317.17-24.05 319.4-21.05 321.62-18.05 321.62-13.05L321.62-13.05 321.47-10.55 306.17-10.55Q306.42-6.8 308.17-4.48 309.92-2.15 313-2.15 316.07-2.15 320.22-3.6L320.22-3.6 320.97-1.1Q316.92 0.45 313.37 0.45L313.37 0.45Q308.47 0.45 305.9-2.83 303.32-6.1 303.32-11.85ZM312.82-21.5L312.82-21.5Q306.52-21.5 306.17-13.05L306.17-13.05 318.77-13.05Q318.77-21.5 312.82-21.5ZM335.87-2.15L335.87-2.15Q337.72-2.15 339.89-3.33 342.07-4.5 343.07-5.5L343.07-5.5 343.07-11.45Q339.77-11.7 336.77-11.7 333.77-11.7 332.27-10.43 330.77-9.15 330.77-7L330.77-7Q330.77-2.15 335.87-2.15ZM335.82 0.45L335.82 0.45Q332.17 0.45 330.07-1.43 327.97-3.3 327.97-6.75 327.97-10.2 330.27-12.1L330.27-12.1Q332.57-14.05 336.37-14.05 340.17-14.05 343.07-13.75L343.07-13.75Q343.07-18.2 341.97-19.83 340.87-21.45 337.52-21.45 334.17-21.45 329.62-19.85L329.62-19.85 328.87-22.35Q333.52-24.05 337.27-24.05L337.27-24.05Q342.22-24.05 343.97-21.85 345.72-19.65 345.72-14.15L345.72-14.15 345.72-3.65 346.12 0.15 343.57 0.4 343.07-2.6Q341.92-1.6 339.82-0.58 337.72 0.45 335.82 0.45ZM353.87-1.15L353.87-1.15 354.52-3.75Q359.47-2.1 362.17-2.1 364.87-2.1 366.34-3.28 367.82-4.45 367.82-6.4 367.82-8.35 366.64-9.28 365.47-10.2 361.77-11.05 358.07-11.9 356.22-13.5L356.22-13.5Q354.37-15 354.37-18 354.37-21 356.64-22.58 358.92-24.15 362.52-24.15 366.12-24.15 370.32-22.55L370.32-22.55 369.62-20.2Q365.37-21.6 362.77-21.6 360.17-21.6 358.67-20.7L358.67-20.7Q357.17-19.7 357.17-18 357.17-16.3 358.49-15.35 359.82-14.4 363.62-13.45 367.42-12.5 369.02-11.03 370.62-9.55 370.62-6.4 370.62-3.25 368.47-1.4L368.47-1.4Q366.37 0.45 362.47 0.45 358.57 0.45 353.87-1.15Z" opacity="1" transform="matrix(1,0,0,1,0,0)" fill="#000000" class="slogan-text-1" data-fill-palette-color="secondary" id="text-1"></path></svg></g></svg></g></svg></g></svg></g><g><svg viewBox="0 0 225.4849351076337 225.4849351076337" height="225.4849351076337" width="225.4849351076337"><g><svg></svg></g><g id="icon-0"><svg viewBox="0 0 225.4849351076337 225.4849351076337" height="225.4849351076337" width="225.4849351076337"><g><path d="M0 112.742c0-62.266 50.477-112.742 112.742-112.742 62.266 0 112.742 50.477 112.743 112.742 0 62.266-50.477 112.742-112.743 112.743-62.266 0-112.742-50.477-112.742-112.743zM112.742 219c58.684 0 106.257-47.573 106.258-106.258 0-58.684-47.573-106.257-106.258-106.257-58.684 0-106.257 47.573-106.257 106.257 0 58.684 47.573 106.257 106.257 106.258z" data-fill-palette-color="accent" fill="#000000" stroke="transparent"></path><ellipse rx="111.61504287827869" ry="111.61504287827869" cx="112.74246755381685" cy="112.74246755381685" fill="#000000" stroke="transparent" stroke-width="0" fill-opacity="1" data-fill-palette-color="accent"></ellipse></g><g transform="matrix(1,0,0,1,49.193289425308684,49.193289425308684)"><svg viewBox="0 0 127.09835625701633 127.09835625701633" height="127.09835625701633" width="127.09835625701633"><g><svg xmlns="http://www.w3.org/2000/svg" data-name="Layer 1" viewBox="0 0 128 128" x="0" y="0" height="127.09835625701633" width="127.09835625701633" class="icon-cg-0" data-fill-palette-color="quaternary" id="cg-0"><path d="M126 0H2A2 2 0 0 0 0 2V126a2 2 0 0 0 2 2H126a2 2 0 0 0 2-2V2A2 2 0 0 0 126 0Zm-2 124H4V20H124Zm0-108H4V4H124Z" fill="#ffffff" data-fill-palette-color="quaternary"></path><circle cx="117.5" cy="10" r="2.0" fill="#ffffff" data-fill-palette-color="quaternary"></circle><circle cx="109.5" cy="10" r="2.0" fill="#ffffff" data-fill-palette-color="quaternary"></circle><circle cx="101.5" cy="10" r="2.0" fill="#ffffff" data-fill-palette-color="quaternary"></circle><polygon points="28.1 46.6 27.26 44.75 27.27 44.76 28.1 46.6" fill="#ffffff" data-fill-palette-color="quaternary"></polygon><path d="M71 47H65a2 2 0 0 0 0 4h6a2 2 0 0 0 0-4Z" fill="#ffffff" data-fill-palette-color="quaternary"></path><path d="M18.48 52.84l8.17 4.86a6.78 6.78 0 0 0 2.78 0.85l6.76 12.78a0.31 0.31 0 0 0 0.06 0.13 6.16 6.16 0 0 0 4.52 3.13h0.07A6.08 6.08 0 0 0 44.3 74l9.64-5.09 0 21.72s0 0 0 0.07v0.06l0.5 7.63a2 2 0 0 0 0.28 0.9l9.61 15.93H22.1c-2.57 0-2.58 4 0 4H67.79a2.09 2.09 0 0 0 2-1.15L81.13 99.4a2 2 0 0 0 0.29-0.92l0.19-3.33 0.07 0a5.21 5.21 0 0 0 1.28 0.37 5.28 5.28 0 0 0 1.15 0.68 5.39 5.39 0 0 0 1.3 0.38 5.11 5.11 0 0 0 1.13 0.67 5.33 5.33 0 0 0 2.12 0.44 5.15 5.15 0 0 0 1.25-0.15 5.42 5.42 0 0 0 4.35 2.23 5.16 5.16 0 0 0 2.06-0.42 5.25 5.25 0 0 0 2.79-2.77A5.34 5.34 0 0 0 99.34 93l-1.93-9.58A7 7 0 0 0 96.23 81l5-13.71a5.9 5.9 0 0 0 0.22-3.23 6.35 6.35 0 0 0-0.49-1.49 6 6 0 0 0-3.26-2.94L81.9 53.88l0-18c0-0.08 0-0.15 0-0.22s0-0.23 0-0.34a9.06 9.06 0 0 0-9-8.5L63 26.77a9 9 0 0 0-9 9l0 19.5L44 60.54l-4-7.55a6.88 6.88 0 0 0 0.54-4.7 59.52 59.52 0 0 0-1.32-5.94 26.66 26.66 0 0 0-1.19-2.63 5.44 5.44 0 0 0-4.8-3A5.38 5.38 0 0 0 30 37.87c-0.43 0.08-1.28 0.32-1.28 0.32a5.33 5.33 0 0 0-3-2.77 5.4 5.4 0 0 0-6.87 3.1A5.34 5.34 0 0 0 19 42.6l0.19 0.4a5.46 5.46 0 0 0-1.13 0.51 5.35 5.35 0 0 0-2.1 6.74A5.29 5.29 0 0 0 18.48 52.84Zm63.42 5.3L96.29 63.4a2.1 2.1 0 0 1 1.23 2.48L92.87 78.59S89.35 77.07 89.19 77l3.17-8.66a2 2 0 0 0-1.19-2.57L81.89 62.4Zm0 5.92v2.6l6 2.2-2.94 8h0a7 7 0 0 0-3.1 1.84v4.54Zm0 21.29c1-1.47 2.5-3.38 2.5-3.38a3 3 0 0 1 3.69-1.1l3.79 1.65a3 3 0 0 1 1.69 2L95.46 94c0.17 0.84-0.21 1.8-1.2 1.8A1.41 1.41 0 0 1 93 94.92l-1.77-4.6-1.33 2.61a1.36 1.36 0 0 1-1.74 0.69 1.34 1.34 0 0 1-0.71-1.67A1.32 1.32 0 0 1 85 90.83a1.35 1.35 0 0 1-1.74 0.69 1.32 1.32 0 0 1-0.69-1.74l0.8-1.85-0.78 1.79a1.41 1.41 0 0 1-0.75 0.72v-5.1Zm0 5.72l0 0.68Zm-14 22.32L60 100.25l15.89 0.09Zm9.64-17L58.3 96.24l-0.24-3.63 19.69 0.11ZM59.46 32.24A5 5 0 0 1 63 30.77h0l9.86 0.05a5 5 0 0 1 4.69 3.3l-3 0.78a3.55 3.55 0 0 0-5.79 0.35h-2a3.55 3.55 0 0 0-5.71-0.43l-2.85-0.74A5 5 0 0 1 59.46 32.24ZM58 38.12l2.74 0.71a3.55 3.55 0 0 0 6 0.42H69a3.55 3.55 0 0 0 6-0.29l3-0.78V54.42L58 54.3Zm0 20.18l19.95 0.12 0 30.3-19.95-0.11ZM41.44 64.17a2 2 0 0 0 2.7 0.83l9.8-5.18v4.53l-11.32 6-0.14 0.07a2 2 0 0 1-0.94 0.23h-0.12l-0.27 0-0.1 0a2.42 2.42 0 0 1-0.3-0.1l-0.17-0.08a2.55 2.55 0 0 1-0.47-0.37 2 2 0 0 1-0.29-0.37l0-0.08L33.5 57.7l3.19-1.45c0.16-0.07 0.29-0.17 0.44-0.25ZM19.57 47.56a1.4 1.4 0 0 1 1.74-0.73l4.81 1.81-3.49-7.69a1.32 1.32 0 0 1 0.66-1.75 1.35 1.35 0 0 1 1.75 0.66l2.23 4.9A1.32 1.32 0 0 1 27.92 43a1.34 1.34 0 0 1 1.75 0.66 1.32 1.32 0 0 1 0.66-1.75 1.34 1.34 0 0 1 1.75 0.66l0.83 1.84-0.81-1.78a1.37 1.37 0 0 1 0.68-1.83 1.34 1.34 0 0 1 1.71 0.67s0.81 1.59 1 2.15c0.45 1.33 1.2 5.5 1.2 5.5A3 3 0 0 1 35 52.6l-3.77 1.71a3.07 3.07 0 0 1-2.58-0.05l-8.37-5A1.34 1.34 0 0 1 19.57 47.56Z" fill="#ffffff" data-fill-palette-color="quaternary"></path></svg></g></svg></g></svg></g></svg></g></svg></g><defs></defs></svg><rect width="395.5199999999999" height="136.1670670145089" fill="none" stroke="none" visibility="hidden"></rect></g></svg></g></svg>